<?xml version="1.0" standalone="no"?>
<!DOCTYPE svg PUBLIC "-//W3C//DTD SVG 20010904//EN"
 "http://www.w3.org/TR/2001/REC-SVG-20010904/DTD/svg10.dtd">
<svg version="1.0" xmlns="http://www.w3.org/2000/svg"
 width="605.000000pt" height="605.000000pt" viewBox="0 0 605.000000 605.000000"
 preserveAspectRatio="xMidYMid meet">
<metadata>
Created by potrace 1.14, written by Peter Selinger 2001-2017
</metadata>
<g transform="translate(0.000000,605.000000) scale(0.100000,-0.100000)"
fill="#000000" stroke="none">
<path d="M0 3030 l0 -2990 3025 0 3025 0 0 2990 0 2990 -3025 0 -3025 0 0
-2990z m2240 2570 c0 -93 4 -150 10 -150 6 0 11 8 11 18 1 16 2 16 6 0 2 -10
9 -18 14 -18 5 0 10 8 10 18 1 16 2 16 6 0 4 -15 17 -18 85 -18 l81 0 512
-305 c282 -168 516 -305 519 -305 3 0 6 137 6 305 l0 305 345 0 c321 0 345 1
346 18 1 16 2 16 6 0 2 -10 9 -18 14 -18 5 0 10 8 10 18 1 16 2 16 6 0 2 -10
9 -18 14 -18 5 0 9 65 9 150 l0 150 680 0 680 0 0 -680 0 -680 -674 0 c-465 0
-677 3 -681 11 -4 5 -6 242 -6 525 1 350 -2 514 -9 514 -5 0 -10 -6 -10 -12 0
-9 -4 -8 -10 2 -9 13 -11 13 -20 0 -6 -10 -10 -11 -10 -2 0 9 -75 12 -340 12
l-340 0 2 -307 3 -308 255 -152 c140 -84 260 -155 265 -157 6 -2 8 -6 5 -9 -3
-2 -121 64 -263 149 -142 85 -261 154 -263 154 -2 0 -4 -287 -4 -637 l0 -638
190 -340 c104 -187 272 -488 373 -670 l184 -330 57 -3 c34 -2 56 1 56 8 0 13
37 13 45 0 4 -6 17 -4 36 5 l30 16 -1 262 c0 144 0 315 0 380 l0 117 678 -2
677 -3 0 -565 0 -565 -677 -3 -678 -2 0 40 c0 32 -6 46 -27 65 -18 15 -35 22
-47 18 -12 -3 -25 2 -35 15 -11 15 -135 61 -433 162 -229 77 -420 140 -423
140 -3 0 -5 -207 -5 -459 0 -253 -3 -462 -7 -464 -5 -3 -7 206 -5 464 1 258 1
469 -1 469 -3 0 -940 316 -1166 394 -78 27 -108 33 -118 25 -10 -9 -13 -7 -13
6 0 14 -3 15 -15 5 -13 -11 -14 -10 -9 4 3 9 1 16 -5 16 -8 0 -11 -188 -11
-673 l0 -674 26 -11 c18 -9 31 -9 46 -1 16 9 24 8 36 -5 15 -15 15 -17 0 -32
-12 -13 -20 -14 -36 -5 -15 8 -28 8 -46 -1 l-26 -11 0 -154 0 -153 -680 0
-680 0 0 43 c0 38 -4 45 -27 56 -19 9 -29 9 -31 2 -5 -14 -39 -14 -47 -1 -4 6
-85 10 -211 10 l-204 0 2 2143 3 2142 2 -2137 3 -2138 199 0 c123 0 202 4 206
10 8 13 42 13 47 -1 2 -7 12 -7 31 2 l27 12 0 944 0 943 680 0 680 0 0 -150
c0 -123 3 -150 14 -150 8 0 16 3 19 8 2 4 2 1 1 -5 -4 -17 8 -17 25 0 11 10
13 9 8 -5 -4 -10 -5 -18 -3 -18 2 0 88 -29 192 -64 314 -108 1078 -366 1081
-366 2 0 3 277 3 616 l0 616 -219 392 c-120 215 -352 632 -516 926 -164 294
-305 541 -313 547 -17 14 -13 26 4 15 6 -4 241 -421 523 -927 283 -506 515
-922 517 -924 2 -3 3 281 2 629 l-3 634 -125 75 c-69 40 -301 179 -517 307
l-392 234 -81 0 -80 0 0 -32 c0 -25 -3 -29 -10 -18 -5 8 -7 23 -4 33 3 9 1 17
-5 17 -6 0 -11 -15 -11 -32 0 -25 -3 -29 -10 -18 -5 8 -7 23 -4 33 3 9 1 17
-5 17 -8 0 -12 -163 -13 -522 l-3 -523 -677 -3 -678 -2 -1 507 c0 280 -1 537
0 573 0 36 0 113 1 173 l0 107 680 0 680 0 0 -150z m-1410 -192 c-1 -26 -3
-30 -10 -16 -6 9 -7 23 -4 32 9 25 14 19 14 -16z m30 0 c-1 -26 -3 -30 -10
-16 -6 9 -7 23 -4 32 9 25 14 19 14 -16z m-430 2 c0 -5 -4 -10 -10 -10 -5 0
-10 5 -10 10 0 6 5 10 10 10 6 0 10 -4 10 -10z m300 0 c0 -5 -4 -10 -10 -10
-5 0 -10 5 -10 10 0 6 5 10 10 10 6 0 10 -4 10 -10z m3456 -881 c3 -6 16 -8
28 -5 17 4 22 1 22 -14 0 -15 -5 -18 -19 -14 -10 3 -24 1 -31 -5 -18 -15 -46
-3 -46 19 0 25 33 39 46 19z m-1656 -3169 c0 -5 -4 -10 -10 -10 -5 0 -10 5
-10 10 0 6 5 10 10 10 6 0 10 -4 10 -10z m300 0 c0 -5 -4 -10 -10 -10 -5 0
-10 5 -10 10 0 6 5 10 10 10 6 0 10 -4 10 -10z m300 0 c0 -5 -4 -10 -10 -10
-5 0 -10 5 -10 10 0 6 5 10 10 10 6 0 10 -4 10 -10z m300 0 c0 -5 -4 -10 -10
-10 -5 0 -10 5 -10 10 0 6 5 10 10 10 6 0 10 -4 10 -10z"/>
<path d="M890 5635 l0 -105 670 0 670 0 0 105 0 105 -670 0 -670 0 0 -105z
m90 50 c0 -33 -2 -35 -35 -35 -33 0 -35 2 -35 35 0 33 2 35 35 35 33 0 35 -2
35 -35z m470 -29 c0 -14 5 -28 10 -31 6 -4 10 7 10 24 0 17 5 31 11 31 6 0 9
-14 7 -32 -5 -57 -57 -48 -58 10 0 12 5 22 10 22 6 0 10 -11 10 -24z m80 -6
c-10 -6 -11 -10 -2 -10 6 0 12 -7 12 -15 0 -9 -9 -15 -22 -14 -22 0 -22 1 -3
9 17 7 17 9 3 9 -27 1 -22 31 5 31 18 0 19 -2 7 -10z m140 0 c-10 -6 -11 -10
-2 -10 6 0 12 -7 12 -15 0 -9 -9 -15 -22 -14 -13 0 -17 3 -11 6 10 3 10 8 -1
19 -20 19 -26 18 -26 -6 0 -11 -4 -20 -10 -20 -5 0 -10 5 -10 10 0 6 -8 10
-17 10 -15 0 -16 -2 -3 -10 13 -8 13 -10 -2 -10 -20 0 -32 16 -25 34 4 9 26
14 69 15 44 0 59 -2 48 -9z"/>
<path d="M933 5683 c9 -2 23 -2 30 0 6 3 -1 5 -18 5 -16 0 -22 -2 -12 -5z"/>
<path d="M4260 5635 l0 -105 670 0 670 0 0 105 0 105 -670 0 -670 0 0 -105z
m100 50 c0 -33 -2 -35 -35 -35 -33 0 -35 2 -35 35 0 33 2 35 35 35 33 0 35 -2
35 -35z m450 -25 c0 -11 -7 -20 -15 -20 -8 0 -15 -7 -15 -15 0 -8 -4 -15 -10
-15 -5 0 -10 16 -10 35 0 31 3 35 25 35 18 0 25 -5 25 -20z m243 -21 c-4 -15
0 -19 18 -19 21 1 22 2 6 11 -22 13 -13 29 16 28 21 0 21 -1 2 -9 -17 -7 -17
-9 -2 -9 9 -1 17 -8 17 -16 0 -10 -11 -15 -35 -15 -19 0 -35 4 -35 10 0 5 -9
14 -20 20 -16 8 -20 8 -20 -4 0 -10 6 -13 18 -9 14 5 15 4 4 -8 -10 -11 -16
-11 -32 -1 -25 15 -52 16 -30 1 12 -9 11 -10 -7 -6 -13 3 -24 -1 -27 -9 -9
-23 -25 -16 -19 9 3 16 2 18 -5 9 -14 -20 -47 -10 -47 13 0 23 34 33 46 13 5
-8 9 -9 9 -2 0 8 21 11 60 10 45 -1 61 2 65 13 9 22 24 -5 18 -30z m-211 -4
c-2 -14 -8 -25 -13 -25 -5 0 -9 11 -9 25 0 14 6 25 14 25 9 0 12 -8 8 -25z"/>
<path d="M4313 5683 c9 -2 23 -2 30 0 6 3 -1 5 -18 5 -16 0 -22 -2 -12 -5z"/>
<path d="M4870 5634 c0 -8 5 -12 10 -9 6 4 8 11 5 16 -9 14 -15 11 -15 -7z"/>
<path d="M890 5410 l0 -110 105 0 105 0 0 110 0 110 -105 0 -105 0 0 -110z
m120 26 c0 -6 5 -5 12 2 7 7 17 12 22 12 6 0 5 -5 -2 -12 -8 -8 -8 -17 -1 -30
14 -27 2 -36 -16 -12 -13 17 -14 17 -15 2 0 -24 -20 -23 -20 1 0 14 -5 18 -20
14 -11 -3 -20 -12 -20 -19 0 -8 -4 -14 -10 -14 -5 0 -10 16 -10 35 0 34 1 35
40 33 22 -1 40 -6 40 -12z"/>
<path d="M950 5430 c0 -5 5 -10 10 -10 6 0 10 5 10 10 0 6 -4 10 -10 10 -5 0
-10 -4 -10 -10z"/>
<path d="M1110 5410 l0 -110 560 0 560 0 0 110 0 110 -560 0 -560 0 0 -110z
m370 1 c0 -38 -1 -39 -42 -43 -24 -3 -95 -2 -159 0 l-115 5 4 28 c5 34 21 39
23 7 2 -22 2 -22 6 -2 3 16 12 21 36 22 23 1 27 -2 17 -8 -13 -8 -12 -10 2
-10 9 0 19 4 22 9 3 5 25 9 48 9 24 0 37 -2 31 -5 -7 -3 -13 -13 -13 -24 0
-15 7 -19 35 -19 31 0 35 3 35 26 0 19 4 25 15 20 8 -3 21 1 27 9 21 23 28 17
28 -24z"/>
<path d="M1451 5404 c0 -11 3 -14 6 -6 3 7 2 16 -1 19 -3 4 -6 -2 -5 -13z"/>
<path d="M1220 5400 c0 -6 7 -10 15 -10 8 0 15 2 15 4 0 2 -7 6 -15 10 -8 3
-15 1 -15 -4z"/>
<path d="M1290 5396 c0 -2 7 -6 15 -10 8 -3 15 -1 15 4 0 6 -7 10 -15 10 -8 0
-15 -2 -15 -4z"/>
<path d="M4260 5410 l0 -111 108 3 107 3 0 105 0 105 -107 3 -108 3 0 -111z
m100 20 c0 -11 -7 -20 -15 -20 -8 0 -15 -7 -15 -15 0 -8 -4 -15 -10 -15 -5 0
-10 16 -10 35 0 31 3 35 25 35 18 0 25 -5 25 -20z m57 -17 c1 -28 -1 -32 -13
-22 -10 8 -14 8 -14 0 0 -6 -4 -11 -10 -11 -5 0 -10 15 -10 34 0 28 4 34 23
34 19 0 23 -6 24 -35z"/>
<path d="M4490 5410 l0 -110 555 0 555 0 0 110 0 110 -555 0 -555 0 0 -110z
m344 3 c1 -23 6 -29 29 -31 23 -3 27 0 27 22 0 26 19 38 21 14 0 -10 2 -10 6
0 2 6 11 12 18 12 7 0 16 6 18 13 3 6 6 -7 6 -30 1 -49 17 -45 -174 -47 l-100
-1 3 31 4 32 59 -2 c43 -1 60 2 64 13 8 20 18 6 19 -26z m-243 -10 l2 -28 4
28 c2 15 10 27 17 27 9 0 12 -9 8 -25 -2 -14 0 -25 5 -25 5 0 9 10 9 23 -1 16
5 23 22 25 18 3 22 -1 22 -23 0 -30 -5 -32 -82 -38 l-58 -4 0 34 c0 29 3 33
25 33 20 0 25 -5 26 -27z"/>
<path d="M4780 5405 c0 -9 6 -12 15 -9 8 4 15 7 15 9 0 2 -7 5 -15 9 -9 3 -15
0 -15 -9z"/>
<path d="M4935 5411 c-3 -5 -1 -12 5 -16 5 -3 10 1 10 9 0 18 -6 21 -15 7z"/>
<path d="M4740 5390 c20 -13 33 -13 25 0 -3 6 -14 10 -23 10 -15 0 -15 -2 -2
-10z"/>
<path d="M4561 5404 c0 -11 3 -14 6 -6 3 7 2 16 -1 19 -3 4 -6 -2 -5 -13z"/>
<path d="M4650 5404 c0 -8 5 -12 10 -9 6 4 8 11 5 16 -9 14 -15 11 -15 -7z"/>
<path d="M890 4845 l0 -445 105 0 105 0 0 445 0 445 -105 0 -105 0 0 -445z"/>
<path d="M1110 4845 l0 -445 560 0 560 0 0 445 0 445 -560 0 -559 0 -1 -445z
m88 345 l11 25 0 -27 c1 -22 -4 -28 -19 -28 -15 0 -20 6 -19 28 l1 27 8 -25 7
-25 11 25z m42 10 c-13 -8 -13 -10 2 -10 9 0 19 4 22 9 3 5 71 9 151 9 118 0
145 -3 145 -14 0 -8 -8 -14 -17 -15 -16 0 -15 -2 2 -10 17 -7 15 -8 -10 -6
-20 1 -32 9 -37 22 -6 19 -7 18 -14 -5 l-8 -25 -7 25 c-7 24 -7 24 -8 3 -1
-20 -6 -23 -46 -23 -40 0 -45 3 -46 23 l-2 22 -4 -22 c-2 -13 -9 -23 -14 -23
-5 0 -10 10 -10 23 l-2 22 -4 -22 c-4 -20 -10 -22 -59 -21 -32 1 -49 5 -42 10
10 6 10 8 1 8 -7 0 -13 7 -13 15 0 8 8 15 18 15 14 0 15 -2 2 -10z m140 -235
l0 -35 -55 0 c-50 0 -55 2 -56 23 l-2 22 -4 -22 c-5 -27 -23 -31 -24 -5 0 14
-2 14 -9 -3 -8 -18 -9 -17 -9 8 -1 27 0 27 57 26 84 -2 90 -1 72 11 -12 8 -11
10 8 10 19 0 22 -5 22 -35z m-170 0 c0 -8 -8 -15 -17 -16 -15 0 -15 -2 2 -9
19 -8 19 -9 -2 -9 -18 -1 -23 5 -23 24 0 18 5 25 20 25 11 0 20 -7 20 -15z
m330 -220 c0 -41 -25 -49 -40 -12 -8 21 -9 21 -9 1 -1 -16 -8 -21 -31 -22 -16
0 -33 4 -36 10 -4 6 -10 5 -15 -3 -8 -12 -11 -11 -19 1 -6 10 -10 11 -10 3 0
-20 -17 -15 -23 7 -3 11 -11 20 -19 19 -10 0 -10 -2 0 -6 6 -2 12 -11 12 -18
0 -10 -19 -14 -81 -13 -59 0 -84 -3 -90 -13 -6 -9 -9 -2 -9 24 0 30 4 37 20
37 12 0 20 -7 21 -17 1 -17 2 -17 6 0 6 24 43 22 43 -3 0 -13 6 -20 18 -19 10
0 12 3 5 6 -19 7 -15 33 5 33 14 0 15 -2 2 -10 -13 -8 -12 -10 3 -10 9 0 17
-4 17 -10 0 -5 8 -10 18 -10 16 1 16 1 0 11 -27 15 -21 29 12 29 17 0 30 -5
30 -12 0 -9 3 -10 8 -2 4 6 38 12 77 12 40 0 71 5 73 11 7 21 12 11 12 -24z
m-160 -205 c0 -5 16 -10 35 -10 32 0 35 -3 34 -27 l-1 -28 -8 25 -8 25 -8 -25
-8 -25 -7 25 c-6 23 -7 23 -8 3 -1 -20 -6 -22 -60 -22 -56 1 -58 2 -58 26 0
22 3 24 28 19 19 -3 33 0 41 9 15 17 28 19 28 5z m-170 -20 c-13 -8 -12 -10 3
-10 28 0 14 -25 -16 -28 -23 -3 -27 1 -27 20 0 19 6 24 28 26 21 1 23 0 12 -8z
m257 -27 c-3 -10 -5 -4 -5 12 0 17 2 24 5 18 2 -7 2 -21 0 -30z m52 10 c-2
-24 -2 -25 -6 -5 -2 12 -8 22 -13 22 -5 0 -11 -10 -13 -22 -4 -20 -4 -19 -6 5
-1 21 4 27 19 27 15 0 20 -6 19 -27z m-251 -40 c-10 -2 -26 -2 -35 0 -10 3 -2
5 17 5 19 0 27 -2 18 -5z"/>
<path d="M1395 5191 c-6 -11 13 -26 22 -17 4 3 0 6 -8 6 -11 0 -11 2 1 10 9 6
10 10 3 10 -6 0 -14 -4 -18 -9z"/>
<path d="M1288 5173 c7 -3 16 -2 19 1 4 3 -2 6 -13 5 -11 0 -14 -3 -6 -6z"/>
<path d="M1295 4961 c-6 -11 13 -26 22 -17 4 3 0 6 -8 6 -11 0 -11 2 1 10 9 6
10 10 3 10 -6 0 -14 -4 -18 -9z"/>
<path d="M1186 4741 c-4 -7 -5 -15 -2 -18 9 -9 19 4 14 18 -4 11 -6 11 -12 0z"/>
<path d="M1435 4741 c-3 -5 -1 -12 5 -16 5 -3 10 1 10 9 0 18 -6 21 -15 7z"/>
<path d="M1515 4741 c-3 -5 -1 -12 5 -16 5 -3 10 1 10 9 0 18 -6 21 -15 7z"/>
<path d="M1345 4511 c-3 -5 -1 -12 5 -16 5 -3 10 1 10 9 0 18 -6 21 -15 7z"/>
<path d="M1180 4500 c0 -6 7 -10 15 -10 8 0 15 2 15 4 0 2 -7 6 -15 10 -8 3
-15 1 -15 -4z"/>
<path d="M4260 4845 l0 -446 108 3 107 3 2 443 3 442 -110 0 -110 0 0 -445z
m88 -302 c-10 -2 -18 -9 -18 -14 0 -5 8 -10 18 -10 16 -1 16 -2 0 -6 -10 -2
-18 -11 -18 -19 0 -8 -4 -14 -10 -14 -5 0 -10 16 -10 35 0 32 3 35 28 34 16
-1 20 -3 10 -6z m55 -6 c20 17 21 17 8 0 -11 -14 -11 -21 -3 -29 18 -18 14
-32 -4 -17 -13 10 -17 10 -25 -2 -6 -10 -8 -2 -8 26 1 22 3 32 6 22 5 -18 5
-18 26 0z"/>
<path d="M4490 4845 l0 -445 555 0 555 0 0 445 0 445 -555 0 -555 0 0 -445z
m314 342 c1 -22 -3 -24 -53 -25 -29 0 -58 -5 -64 -11 -16 -16 -27 -14 -21 3 4
11 0 13 -15 9 -15 -4 -23 1 -30 18 l-10 24 0 -24 c-1 -16 -5 -21 -16 -17 -8 3
-21 -1 -29 -9 -22 -22 -26 -19 -26 19 l0 34 120 -1 c66 0 123 3 127 6 10 10
16 0 17 -26z m276 7 c0 -8 -8 -14 -17 -15 -16 0 -15 -2 2 -10 17 -7 15 -8 -10
-6 -20 1 -32 9 -37 22 -6 19 -7 18 -14 -5 l-8 -25 -7 25 c-7 24 -7 24 -8 3 -1
-20 -6 -23 -46 -23 -40 0 -45 3 -46 23 l-2 22 -4 -22 c-6 -30 -23 -29 -23 1 0
24 1 24 110 24 88 0 110 -3 110 -14z m-232 -51 c-10 -2 -26 -2 -35 0 -10 3 -2
5 17 5 19 0 27 -2 18 -5z m-258 -156 c0 -10 13 -12 48 -10 34 2 43 0 32 -7
-13 -8 -12 -10 3 -10 9 0 17 4 17 10 0 5 31 8 70 7 50 -1 71 2 75 11 4 11 8
11 19 -1 9 -8 26 -12 40 -10 22 5 26 2 26 -20 0 -25 -2 -26 -56 -25 -37 1 -58
-3 -64 -12 -7 -11 -11 -11 -23 2 -8 8 -17 23 -20 34 -4 17 -5 17 -6 -3 -1 -21
-5 -22 -106 -21 -104 0 -105 0 -105 24 0 15 6 24 15 24 8 0 15 5 15 10 0 6 5
10 10 10 6 0 10 -6 10 -13z m379 -34 c-2 -24 -2 -25 -6 -5 -2 12 -8 22 -13 22
-5 0 -11 -10 -13 -22 -4 -20 -4 -19 -6 5 -1 21 4 27 19 27 15 0 20 -6 19 -27z
m-379 -182 c0 -16 44 -17 57 -1 9 10 12 11 13 3 0 -7 11 -13 25 -13 29 0 36
-30 8 -31 -15 0 -15 -2 2 -9 13 -6 -9 -9 -67 -9 -87 -1 -88 -1 -88 24 0 16 6
25 15 25 8 0 15 5 15 10 0 6 5 10 10 10 6 0 10 -4 10 -9z m240 -256 c0 -33 -2
-35 -30 -33 -23 2 -30 7 -30 23 0 14 7 21 22 22 13 1 24 7 26 13 7 20 12 9 12
-25z m-269 -7 l2 -23 4 23 c3 17 11 22 36 22 24 0 28 -3 17 -10 -13 -8 -12
-10 3 -10 9 0 17 5 17 10 0 6 9 10 20 10 25 0 27 -30 3 -31 -15 0 -15 -2 2 -8
13 -6 -5 -9 -52 -10 -71 -1 -73 0 -73 24 0 31 19 33 21 3z m153 14 c-7 -4 -14
-16 -17 -27 -4 -15 -5 -14 -6 8 -1 20 4 27 17 27 11 0 13 -3 6 -8z m44 -59
c-10 -2 -26 -2 -35 0 -10 3 -2 5 17 5 19 0 27 -2 18 -5z"/>
<path d="M4561 5184 c0 -11 3 -14 6 -6 3 7 2 16 -1 19 -3 4 -6 -2 -5 -13z"/>
<path d="M4635 5191 c-3 -5 -1 -12 5 -16 5 -3 10 1 10 9 0 18 -6 21 -15 7z"/>
<path d="M4755 5192 c-2 -3 -2 -8 1 -13 5 -9 34 -1 34 10 0 8 -27 10 -35 3z"/>
<path d="M4718 5173 c7 -3 16 -2 19 1 4 3 -2 6 -13 5 -11 0 -14 -3 -6 -6z"/>
<path d="M4915 5191 c-6 -11 13 -26 22 -17 4 3 0 6 -8 6 -11 0 -11 2 1 10 9 6
10 10 3 10 -6 0 -14 -4 -18 -9z"/>
<path d="M4555 4961 c-3 -5 -1 -12 5 -16 5 -3 10 1 10 9 0 18 -6 21 -15 7z"/>
<path d="M4700 4955 c0 -16 16 -20 24 -6 3 5 -1 11 -9 15 -9 3 -15 0 -15 -9z"/>
<path d="M4801 4954 c0 -11 3 -14 6 -6 3 7 2 16 -1 19 -3 4 -6 -2 -5 -13z"/>
<path d="M4851 4954 c0 -11 3 -14 6 -6 3 7 2 16 -1 19 -3 4 -6 -2 -5 -13z"/>
<path d="M4890 4955 c0 -8 5 -15 10 -15 6 0 10 7 10 15 0 8 -4 15 -10 15 -5 0
-10 -7 -10 -15z"/>
<path d="M4625 4949 c-16 -6 -14 -8 13 -8 33 -1 41 4 20 12 -7 2 -22 1 -33 -4z"/>
<path d="M4555 4741 c-3 -5 -1 -12 5 -16 5 -3 10 1 10 9 0 18 -6 21 -15 7z"/>
<path d="M4595 4741 c-6 -11 13 -26 22 -17 4 3 0 6 -8 6 -11 0 -11 2 1 10 9 6
10 10 3 10 -6 0 -14 -4 -18 -9z"/>
<path d="M4800 4504 c0 -8 5 -12 10 -9 6 4 8 11 5 16 -9 14 -15 11 -15 -7z"/>
<path d="M4590 4500 c0 -6 7 -10 15 -10 8 0 15 2 15 4 0 2 -7 6 -15 10 -8 3
-15 1 -15 -4z"/>
<path d="M3510 2901 l0 -602 33 -13 c17 -8 208 -73 422 -146 276 -93 398 -130
418 -126 19 4 30 1 33 -9 4 -9 19 -15 35 -15 l29 0 0 80 c0 78 -1 80 -29 95
-19 9 -32 11 -36 5 -8 -13 -45 -13 -45 0 0 6 -26 10 -57 10 l-58 0 -66 118
c-37 64 -200 358 -364 652 -164 294 -302 539 -306 545 -5 5 -9 -251 -9 -594z"/>
<path d="M810 2935 l0 -105 670 0 670 0 0 105 0 105 -670 0 -670 0 0 -105z
m100 50 c0 -33 -2 -35 -35 -35 -33 0 -35 2 -35 35 0 33 2 35 35 35 33 0 35 -2
35 -35z m503 -12 c-7 -2 -13 -18 -13 -34 0 -16 -4 -29 -10 -29 -5 0 -10 13
-10 29 0 16 -6 32 -12 34 -7 3 3 5 22 5 19 0 29 -2 23 -5z m120 -5 c7 -7 12
-20 12 -28 0 -9 10 -16 25 -17 14 -1 18 0 8 3 -26 8 -22 34 5 34 18 0 19 -2 7
-10 -10 -6 -11 -10 -2 -10 6 0 12 -7 12 -15 0 -12 -11 -15 -45 -13 -44 1 -45
2 -45 35 0 36 5 40 23 21z m-83 -33 c0 -18 -5 -25 -20 -25 -11 0 -20 7 -20 15
0 8 6 15 13 15 8 0 7 4 -3 10 -12 8 -11 10 8 10 17 0 22 -6 22 -25z m40 15
c-10 -6 -11 -10 -2 -10 6 0 12 -7 12 -15 0 -9 -9 -15 -22 -14 -22 0 -22 1 -3
9 17 7 17 9 3 9 -27 1 -22 31 5 31 18 0 19 -2 7 -10z"/>
<path d="M863 2983 c9 -2 23 -2 30 0 6 3 -1 5 -18 5 -16 0 -22 -2 -12 -5z"/>
<path d="M4490 2860 l0 -110 670 0 670 0 0 110 0 110 -670 0 -670 0 0 -110z
m90 45 c0 -33 -2 -35 -35 -35 -33 0 -35 2 -35 35 0 33 2 35 35 35 33 0 35 -2
35 -35z m406 -16 c4 -8 0 -9 -15 -4 -18 5 -21 2 -21 -19 0 -31 13 -33 37 -7
13 14 33 19 76 20 54 1 57 0 57 -24 0 -31 -19 -33 -21 -2 -2 22 -2 22 -6 0 -4
-20 -9 -21 -81 -20 -65 2 -77 5 -80 20 -2 10 -1 25 2 33 6 17 42 19 52 3z
m347 -30 c-4 -15 0 -19 18 -19 21 1 22 2 6 11 -22 13 -13 29 16 28 21 0 21 -1
2 -9 -17 -7 -17 -9 -2 -9 9 -1 17 -8 17 -16 0 -19 -70 -21 -71 -2 0 10 -2 10
-6 0 -8 -21 -23 -15 -24 10 l-2 22 -4 -22 c-4 -23 -23 -33 -23 -13 0 6 -8 10
-17 10 -15 0 -16 -2 -3 -10 12 -8 11 -10 -7 -10 -18 0 -23 6 -23 25 0 18 5 25
20 25 11 0 20 -6 20 -12 0 -9 3 -9 9 1 5 8 18 12 29 9 13 -4 23 0 27 10 9 23
24 -3 18 -29z m-133 -4 c0 -31 -19 -33 -21 -2 l-2 22 -4 -22 c-6 -33 -43 -31
-43 2 0 22 4 25 35 25 31 0 35 -3 35 -25z"/>
<path d="M4533 2903 c9 -2 23 -2 30 0 6 3 -1 5 -18 5 -16 0 -22 -2 -12 -5z"/>
<path d="M5010 2854 c0 -8 5 -12 10 -9 6 4 8 11 5 16 -9 14 -15 11 -15 -7z"/>
<path d="M810 2710 l0 -110 110 0 110 0 0 110 0 110 -110 0 -110 0 0 -110z
m100 20 c0 -11 -7 -20 -15 -20 -8 0 -15 -7 -15 -15 0 -8 -4 -15 -10 -15 -5 0
-10 16 -10 35 0 31 3 35 25 35 18 0 25 -5 25 -20z m57 -17 c1 -28 -1 -32 -13
-22 -10 8 -14 8 -14 0 0 -6 -4 -11 -10 -11 -5 0 -10 15 -10 34 0 28 4 34 23
34 19 0 23 -6 24 -35z"/>
<path d="M1040 2710 l0 -110 555 0 555 0 0 110 0 110 -555 0 -555 0 0 -110z
m125 18 c33 0 44 -3 34 -9 -11 -7 -11 -9 4 -9 10 0 17 8 17 20 0 11 5 20 10
20 6 0 10 -4 10 -10 0 -5 6 -10 13 -10 8 0 13 -10 13 -22 -1 -18 5 -24 27 -26
23 -3 27 0 27 22 0 26 19 38 21 14 0 -10 2 -10 6 0 2 6 11 12 18 12 7 0 16 6
18 13 3 6 6 -7 6 -29 l1 -42 -42 -4 c-24 -3 -91 -3 -150 0 l-108 5 0 32 c0 35
10 51 20 34 4 -6 29 -11 55 -11z"/>
<path d="M1110 2704 c0 -14 3 -15 18 -3 9 7 19 15 21 16 2 2 -5 3 -17 3 -14 0
-22 -6 -22 -16z"/>
<path d="M1365 2711 c-3 -5 -1 -12 5 -16 5 -3 10 1 10 9 0 18 -6 21 -15 7z"/>
<path d="M1170 2700 c0 -6 7 -10 15 -10 8 0 15 2 15 4 0 2 -7 6 -15 10 -8 3
-15 1 -15 -4z"/>
<path d="M4490 2635 l0 -105 105 0 105 0 0 105 0 105 -105 0 -105 0 0 -105z
m120 31 c0 -6 5 -5 12 2 7 7 17 12 22 12 6 0 5 -5 -2 -12 -8 -8 -8 -17 -1 -30
14 -27 2 -36 -16 -12 -13 17 -14 17 -15 2 0 -24 -20 -23 -20 1 0 14 -5 18 -20
14 -11 -3 -20 -12 -20 -19 0 -8 -4 -14 -10 -14 -5 0 -10 16 -10 35 0 34 1 35
40 33 22 -1 40 -6 40 -12z"/>
<path d="M4550 2660 c0 -5 5 -10 10 -10 6 0 10 5 10 10 0 6 -4 10 -10 10 -5 0
-10 -4 -10 -10z"/>
<path d="M4710 2635 l0 -105 560 0 560 0 0 105 0 105 -560 0 -560 0 0 -105z
m451 38 c5 -48 3 -63 -8 -63 -7 0 -14 10 -14 23 l-2 22 -4 -22 c-2 -13 -9 -23
-14 -23 -5 0 -10 10 -10 23 l-2 22 -4 -22 c-4 -23 -23 -33 -23 -13 0 6 -8 10
-17 10 -15 0 -16 -2 -3 -10 10 -6 5 -9 -18 -8 -25 1 -32 6 -33 22 -2 20 -2 20
-6 -1 -2 -13 -9 -23 -14 -23 -5 0 -10 10 -10 23 l-2 22 -4 -22 c-3 -15 -12
-23 -24 -23 -13 0 -19 7 -20 23 l-2 22 -4 -22 c-2 -13 -9 -23 -14 -23 -5 0
-10 10 -10 23 -2 21 -2 21 -6 1 -3 -18 -11 -21 -63 -22 -56 -1 -60 1 -60 23
l0 23 182 0 c126 0 183 3 186 11 4 12 22 15 23 4z m129 -28 c0 -33 -1 -34 -35
-33 -30 1 -35 5 -35 26 0 17 4 23 15 18 8 -3 21 1 27 9 21 23 28 17 28 -20z
m-127 -52 c-73 -2 -193 -2 -265 0 -73 1 -14 3 132 3 146 0 205 -2 133 -3z"/>
<path d="M4835 2641 c-3 -5 -1 -12 5 -16 5 -3 10 1 10 9 0 18 -6 21 -15 7z"/>
<path d="M4788 2633 c7 -3 16 -2 19 1 4 3 -2 6 -13 5 -11 0 -14 -3 -6 -6z"/>
<path d="M5261 2634 c0 -11 3 -14 6 -6 3 7 2 16 -1 19 -3 4 -6 -2 -5 -13z"/>
<path d="M810 1810 l0 -780 110 0 110 0 0 780 0 780 -110 0 -110 0 0 -780z
m88 -417 c-10 -2 -18 -9 -18 -14 0 -5 8 -10 18 -10 16 -1 16 -2 0 -6 -10 -2
-18 -11 -18 -19 0 -8 -4 -14 -10 -14 -5 0 -10 16 -10 35 0 32 3 35 28 34 16
-1 20 -3 10 -6z m55 -6 c20 17 21 17 8 0 -11 -14 -11 -21 -3 -29 18 -18 14
-32 -4 -17 -13 10 -17 10 -25 -2 -6 -10 -8 -2 -8 26 1 22 3 32 6 22 5 -18 5
-18 26 0z m-55 -214 c-10 -2 -18 -9 -18 -14 0 -5 8 -10 18 -10 16 -1 16 -2 0
-6 -10 -2 -18 -11 -18 -19 0 -8 -4 -14 -10 -14 -5 0 -10 16 -10 35 0 32 3 35
28 34 16 -1 20 -3 10 -6z m47 -10 c4 9 12 17 17 17 6 0 5 -7 -2 -15 -10 -12
-10 -19 -2 -27 18 -18 14 -32 -4 -17 -13 10 -17 10 -25 -2 -6 -10 -9 -2 -8 26
0 31 2 35 9 20 7 -18 8 -19 15 -2z"/>
<path d="M1040 1810 l0 -780 555 0 555 0 0 780 0 780 -555 0 -555 0 0 -780z
m96 700 c17 0 24 -6 24 -20 0 -13 6 -20 18 -19 10 0 12 3 5 6 -19 7 -15 33 5
33 14 0 15 -2 2 -10 -13 -8 -12 -10 3 -10 10 0 17 8 17 20 0 11 3 20 6 20 11
0 33 -28 27 -34 -3 -3 -1 -12 5 -19 9 -11 -4 -14 -73 -15 l-85 -3 0 29 c0 30
12 51 18 33 2 -6 15 -11 28 -11z m215 -17 c1 -17 2 -17 6 0 2 9 13 17 24 17
14 0 19 -7 19 -25 0 -22 -4 -25 -30 -23 -21 2 -30 7 -30 20 0 26 -18 22 -23
-4 -4 -20 -4 -19 -6 5 -1 21 4 27 19 27 12 0 20 -7 21 -17z m177 -1 c2 -6 -5
-12 -15 -13 -16 0 -16 -1 2 -9 16 -6 12 -8 -17 -8 -31 1 -38 5 -39 22 -2 20
-2 19 -6 -1 -5 -27 -23 -31 -24 -5 0 14 -2 14 -9 -3 -8 -18 -9 -17 -9 8 -1 27
0 27 56 25 34 -2 58 -8 61 -16z m-230 -49 c-10 -2 -26 -2 -35 0 -10 3 -2 5 17
5 19 0 27 -2 18 -5z m-158 -156 c0 -10 13 -12 48 -10 34 2 43 0 32 -7 -13 -8
-12 -10 3 -10 9 0 17 4 17 10 0 5 31 8 70 7 50 -1 71 2 75 11 4 11 8 11 19 -1
9 -8 26 -12 40 -10 22 5 26 2 26 -20 0 -25 -2 -26 -56 -25 -37 1 -58 -3 -64
-12 -7 -11 -11 -11 -23 2 -8 8 -17 23 -20 34 -4 17 -5 17 -6 -3 -1 -21 -5 -22
-106 -21 -104 0 -105 0 -105 24 0 15 6 24 15 24 8 0 15 5 15 10 0 6 5 10 10
10 6 0 10 -6 10 -13z m379 -34 c-2 -24 -2 -25 -6 -5 -2 12 -8 22 -13 22 -5 0
-11 -10 -13 -22 -4 -20 -4 -19 -6 5 -1 21 4 27 19 27 15 0 20 -6 19 -27z
m-337 -195 c18 -3 29 0 32 9 5 12 8 12 20 1 8 -8 16 -23 18 -34 4 -17 6 -16
16 6 l11 25 0 -27 c1 -28 1 -28 -69 -28 -63 0 -70 2 -70 20 0 13 -6 20 -17 19
-11 0 -13 -3 -5 -6 21 -8 13 -33 -10 -32 -22 0 -22 1 -3 9 17 7 17 9 3 9 -29
1 -22 31 7 31 14 0 25 6 25 13 0 8 3 9 8 1 4 -6 19 -13 34 -16z m130 -7 c-11
-7 -10 -9 3 -15 20 -7 10 -26 -13 -26 -15 0 -15 2 -2 10 10 6 11 10 3 10 -7 0
-13 7 -13 15 0 8 8 15 18 15 13 0 14 -2 4 -9z m31 -229 c2 7 7 10 11 7 9 -8
-14 -69 -26 -69 -6 0 -8 6 -5 13 2 6 0 21 -5 32 -8 18 -8 18 -4 -2 3 -19 0
-23 -20 -23 -18 0 -24 6 -25 23 -2 21 -2 21 -6 1 -3 -18 -11 -21 -49 -21 -38
0 -44 3 -45 21 -2 19 -2 19 -6 -2 -3 -15 -10 -22 -19 -18 -7 3 -20 -1 -28 -9
-22 -22 -26 -19 -26 19 l0 34 96 0 c56 0 100 4 106 10 8 8 16 6 29 -9 12 -14
18 -16 22 -7z m-203 -201 c0 -16 44 -17 57 -1 9 10 12 11 13 3 0 -7 11 -13 25
-13 29 0 36 -30 8 -31 -15 0 -15 -2 2 -9 13 -6 -9 -9 -67 -9 -87 -1 -88 -1
-88 24 0 16 6 25 15 25 8 0 15 5 15 10 0 6 5 10 10 10 6 0 10 -4 10 -9z m340
-256 c0 -33 -1 -34 -35 -33 -30 1 -35 5 -35 26 0 17 4 23 15 18 8 -3 21 1 27
9 21 23 28 17 28 -20z m-126 -8 c1 -22 -3 -24 -53 -25 -29 0 -58 -5 -64 -11
-16 -16 -27 -14 -21 3 4 11 0 13 -15 9 -15 -4 -23 1 -30 18 l-10 24 0 -24 c-1
-16 -5 -21 -16 -17 -8 3 -21 -1 -29 -9 -22 -22 -26 -19 -26 19 l0 34 120 -1
c66 0 123 3 127 6 10 10 16 0 17 -26z m44 -44 c-10 -2 -26 -2 -35 0 -10 3 -2
5 17 5 19 0 27 -2 18 -5z m-18 -168 c0 -33 -2 -35 -30 -33 -24 2 -30 7 -30 25
0 13 3 22 8 22 22 -4 42 2 37 11 -3 6 -1 10 4 10 6 0 11 -16 11 -35z m-269 -7
l2 -23 4 23 c3 17 11 22 36 22 24 0 28 -3 17 -10 -13 -8 -12 -10 3 -10 9 0 17
5 17 10 0 6 9 10 20 10 25 0 27 -30 3 -31 -15 0 -15 -2 2 -8 13 -6 -5 -9 -52
-10 -71 -1 -73 0 -73 24 0 31 19 33 21 3z m153 14 c-7 -4 -14 -16 -17 -27 -4
-15 -5 -14 -6 8 -1 20 4 27 17 27 11 0 13 -3 6 -8z m44 -59 c-10 -2 -26 -2
-35 0 -10 3 -2 5 17 5 19 0 27 -2 18 -5z"/>
<path d="M1105 2261 c-3 -5 -1 -12 5 -16 5 -3 10 1 10 9 0 18 -6 21 -15 7z"/>
<path d="M1250 2255 c0 -16 16 -20 24 -6 3 5 -1 11 -9 15 -9 3 -15 0 -15 -9z"/>
<path d="M1351 2254 c0 -11 3 -14 6 -6 3 7 2 16 -1 19 -3 4 -6 -2 -5 -13z"/>
<path d="M1401 2254 c0 -11 3 -14 6 -6 3 7 2 16 -1 19 -3 4 -6 -2 -5 -13z"/>
<path d="M1440 2255 c0 -8 5 -15 10 -15 6 0 10 7 10 15 0 8 -4 15 -10 15 -5 0
-10 -7 -10 -15z"/>
<path d="M1175 2249 c-16 -6 -14 -8 13 -8 33 -1 41 4 20 12 -7 2 -22 1 -33 -4z"/>
<path d="M1150 2035 c0 -6 10 -12 22 -12 16 -2 19 0 9 6 -11 7 -11 9 0 14 8 3
4 4 -8 4 -13 -1 -23 -6 -23 -12z"/>
<path d="M1231 2034 c0 -11 3 -14 6 -6 3 7 2 16 -1 19 -3 4 -6 -2 -5 -13z"/>
<path d="M1111 1804 c0 -11 3 -14 6 -6 3 7 2 16 -1 19 -3 4 -6 -2 -5 -13z"/>
<path d="M1205 1811 c-3 -5 -1 -12 5 -16 5 -3 10 1 10 9 0 18 -6 21 -15 7z"/>
<path d="M1105 1591 c-3 -5 -1 -12 5 -16 5 -3 10 1 10 9 0 18 -6 21 -15 7z"/>
<path d="M1145 1591 c-6 -11 13 -26 22 -17 4 3 0 6 -8 6 -11 0 -11 2 1 10 9 6
10 10 3 10 -6 0 -14 -4 -18 -9z"/>
<path d="M1445 1361 c-3 -5 -1 -12 5 -16 5 -3 10 1 10 9 0 18 -6 21 -15 7z"/>
<path d="M1111 1354 c0 -11 3 -14 6 -6 3 7 2 16 -1 19 -3 4 -6 -2 -5 -13z"/>
<path d="M1185 1361 c-3 -5 -1 -12 5 -16 5 -3 10 1 10 9 0 18 -6 21 -15 7z"/>
<path d="M1305 1362 c-2 -3 -2 -8 1 -13 5 -9 34 -1 34 10 0 8 -27 10 -35 3z"/>
<path d="M1268 1343 c7 -3 16 -2 19 1 4 3 -2 6 -13 5 -11 0 -14 -3 -6 -6z"/>
<path d="M1350 1134 c0 -8 5 -12 10 -9 6 4 8 11 5 16 -9 14 -15 11 -15 -7z"/>
<path d="M1140 1130 c0 -6 7 -10 15 -10 8 0 15 2 15 4 0 2 -7 6 -15 10 -8 3
-15 1 -15 -4z"/>
<path d="M4490 2185 l0 -335 105 0 105 0 0 335 0 335 -105 0 -105 0 0 -335z
m120 33 c0 -9 3 -9 12 0 19 19 29 14 16 -7 -9 -15 -9 -23 1 -35 8 -9 10 -16 6
-16 -4 0 -14 8 -21 18 -13 16 -13 16 -14 0 0 -31 -20 -19 -20 12 0 23 -4 30
-20 30 -25 0 -27 -20 -2 -21 15 -1 15 -2 0 -6 -9 -2 -19 -12 -21 -21 -3 -9 -5
0 -6 21 -1 36 0 37 34 37 21 0 35 -5 35 -12z m0 -230 c0 -9 3 -9 12 0 19 19
29 14 16 -7 -9 -15 -9 -23 1 -35 8 -9 10 -16 6 -16 -4 0 -14 8 -21 18 -13 16
-13 16 -14 0 0 -31 -20 -19 -20 12 0 23 -4 30 -20 30 -25 0 -27 -20 -2 -21 15
-1 15 -2 0 -6 -9 -2 -19 -12 -21 -21 -3 -9 -5 0 -6 21 -1 36 0 37 34 37 21 0
35 -5 35 -12z"/>
<path d="M4710 2185 l1 -335 559 0 560 0 0 335 0 335 -560 0 -560 0 0 -335z
m209 234 c-10 -6 -11 -9 -1 -9 6 0 12 -7 12 -15 0 -12 -13 -15 -55 -15 -50 0
-55 2 -56 23 l-2 22 -4 -22 c-5 -27 -23 -31 -24 -5 0 14 -2 14 -9 -3 -8 -18
-9 -17 -9 7 l-1 27 81 -1 c49 0 76 -4 68 -9z m43 4 c-9 -3 -4 -10 14 -19 15
-8 29 -12 32 -9 3 3 -1 5 -9 5 -12 0 -11 2 1 11 13 9 12 10 -2 5 -10 -3 -18
-1 -18 3 0 15 143 8 148 -6 2 -7 -5 -13 -15 -14 -16 0 -16 -1 2 -10 18 -8 17
-8 -5 -6 -14 1 -30 -4 -36 -12 -11 -14 -50 -8 -41 6 3 5 -18 7 -46 6 -36 -2
-47 0 -37 7 10 6 11 10 3 10 -7 0 -13 7 -13 15 0 8 8 15 18 14 11 0 13 -2 4
-6z m88 -227 c0 -32 -2 -35 -30 -34 -25 1 -30 5 -30 26 0 17 4 23 15 18 8 -3
21 1 27 9 18 20 18 19 18 -19z m-252 -6 l11 25 0 -27 c1 -22 -4 -28 -19 -28
-15 0 -20 6 -19 28 l1 27 8 -25 7 -25 11 25z m42 10 c-13 -8 -13 -10 2 -10 9
0 19 4 22 9 3 5 21 9 39 9 30 0 33 -3 29 -24 -4 -21 -9 -23 -58 -22 -32 1 -49
5 -42 10 10 6 10 8 1 8 -7 0 -13 7 -13 15 0 8 8 15 18 15 14 0 15 -2 2 -10z
m138 -57 c-10 -2 -26 -2 -35 0 -10 3 -2 5 17 5 19 0 27 -2 18 -5z m-143 -165
c33 0 44 -3 34 -9 -10 -6 -10 -9 -1 -9 6 0 12 -7 12 -15 0 -11 -13 -15 -54
-15 -48 0 -54 2 -58 23 -6 30 2 54 12 37 4 -6 29 -12 55 -12z m78 -2 c7 2 12
-5 12 -20 0 -17 -5 -24 -17 -23 -14 1 -18 10 -17 37 1 19 3 27 6 18 2 -9 10
-15 16 -12z m127 -10 c0 -32 -2 -35 -30 -34 -25 1 -30 5 -30 26 0 17 4 23 15
18 8 -3 21 1 27 9 18 20 18 19 18 -19z m-72 -53 c-10 -2 -26 -2 -35 0 -10 3
-2 5 17 5 19 0 27 -2 18 -5z"/>
<path d="M4875 2399 c-16 -6 -14 -8 13 -8 33 -1 41 4 20 12 -7 2 -22 1 -33 -4z"/>
<path d="M5045 2411 c-3 -5 -1 -12 5 -16 5 -3 10 1 10 9 0 18 -6 21 -15 7z"/>
<path d="M5025 2191 c-3 -5 -1 -12 5 -16 5 -3 10 1 10 9 0 18 -6 21 -15 7z"/>
<path d="M4888 2173 c7 -3 16 -2 19 1 4 3 -2 6 -13 5 -11 0 -14 -3 -6 -6z"/>
<path d="M4780 1955 c0 -6 10 -12 22 -12 16 -2 19 0 9 6 -11 7 -11 9 0 14 8 3
4 4 -8 4 -13 -1 -23 -6 -23 -12z"/>
<path d="M4848 1943 c7 -3 16 -2 19 1 4 3 -2 6 -13 5 -11 0 -14 -3 -6 -6z"/>
<path d="M5015 1961 c-3 -5 -1 -12 5 -16 5 -3 10 1 10 9 0 18 -6 21 -15 7z"/>
<path d="M4458 2193 c7 -3 16 -2 19 1 4 3 -2 6 -13 5 -11 0 -14 -3 -6 -6z"/>
<path d="M4458 2173 c7 -3 16 -2 19 1 4 3 -2 6 -13 5 -11 0 -14 -3 -6 -6z"/>
<path d="M2164 1360 c0 -11 5 -19 11 -17 5 2 10 10 10 17 0 7 -5 15 -10 17 -6
2 -11 -6 -11 -17z"/>
</g>
</svg>
